<?xml version="1.0" encoding="UTF-8"?><svg id="Layer_1" xmlns="http://www.w3.org/2000/svg" xmlns:xlink="http://www.w3.org/1999/xlink" viewBox="0 0 596.18 184.06"><defs><style>.cls-1{clip-path:url(#clippath);}.cls-2{fill:none;}.cls-2,.cls-3{stroke-width:0px;}.cls-3{fill:#767676;}</style><clipPath id="clippath"><circle class="cls-2" cx="-439.83" cy="128.24" r="164.95"/></clipPath></defs><path class="cls-3" d="M69.68,82.06c2.98-.69,3.67-.69,5.27-.69,2.52,0,2.75,0,5.73,1.83,5.27,3.21,6.19,3.9,6.19,8.02,0,1.38-.46,2.75-2.29,3.21-16.05,3.9-32.32,7.56-47.22,11.92-2.29.69-2.75.92-3.9,3.44-4.13,8.94-5.73,20.17-9.4,29.34-.92,2.29-1.38,2.75-1.83,4.58-.69,2.29-2.75,11.46-2.75,17.42,0,1.15.23,3.21.23,4.13s0,3.9-4.81,3.9c-7.11,0-10.54-1.83-13.52-4.13-1.15-.92-1.38-1.38-1.38-2.98s.69-6.88,1.38-10.31c2.06-11.69,5.73-22.23,8.94-32.55.92-2.98.92-3.9.92-4.58,0-.46-.23-1.6-2.06-1.6-4.13,0-6.19-2.98-6.19-6.88,0-.69-.92-2.52-.92-3.9,0-.69.23-.92,1.38-1.38,7.11-2.98,7.56-2.29,12.15-3.9,1.15-.46,1.6-1.15,2.06-2.29,5.04-12.38,10.09-24.99,14.67-37.36.69-1.83,1.15-2.98,1.15-3.21s0-.46-.46-.46c-.23,0-.69.23-2.29,1.15-2.75,1.6-4.13,2.75-9.63,5.27-.92.46-1.6.69-4.13.69-2.75,0-4.13-.23-6.19-3.21-1.38-2.06-1.83-3.9-1.83-4.58,0-2.98,2.06-5.27,2.98-7.56l.69-1.38c.23-.23.69-.46,1.15-.46,1.38-.23,5.5-1.6,8.94-2.98,6.88-2.75,13.07-5.73,19.94-8.94,4.81-2.29,6.42-2.98,7.34-3.21,2.75-.69,9.4-3.21,20.17-6.19,10.09-2.75,15.13-3.9,23.84-3.9,7.56,0,13.75.46,17.88,8.48.46.92.46,1.38.46,3.67,0,2.98,0,4.13-.92,4.58-5.04,2.52-5.73,2.75-10.09,2.75-2.75,0-3.21-.23-3.9-1.6-.92-1.6-1.83-3.21-4.58-3.21-2.29,0-7.56,2.06-10.54,2.52-3.67.46-7.56,1.6-11,2.75-3.67,1.15-7.34,2.52-11,3.44-1.83.46-2.06,2.98-2.06,3.67,0,1.38-.23,2.75-.69,3.67-5.96,12.15-11,21.78-14.9,33.24-1.6,4.81-1.83,5.5-1.83,5.96,0,.23,0,.46.46.46.23,0,1.15-.23,2.98-.69,8.02-2.06,16.05-3.9,25.44-5.96Z"/><path class="cls-3" d="M143.03,92.38c-6.19,24.53-14.21,45.84-27.05,61.43-4.13,5.04-4.81,5.73-6.42,7.34-4.58,4.58-7.34,6.42-12.84,6.42-2.75,0-4.81-.46-6.19-1.38-6.42-4.13-11.69-10.09-12.84-14.21-1.38-4.81-1.38-9.86-1.38-14.21,0-8.02.46-10.09,1.38-14.67,2.75-13.98,12.15-31.86,16.73-38.74l7.11-11c6.19-9.4,13.52-19.48,23.84-19.48,5.27,0,8.48.92,11.46,4.36,1.38,1.6,2.06,2.98,2.29,3.9.92,4.13,1.15,5.04,2.75,8.48,1.15,2.52,3.21,3.9,4.36,3.9,5.27,0,9.63-.69,15.13-.69,8.48,0,13.07,2.52,13.07,6.19,0,2.75-4.36,3.21-5.73,5.04-.46.69-.92.92-2.06,1.15-3.9.69-9.17,2.98-13.98,3.9-2.29.46-5.73.69-8.25.69-.92,0-1.15.69-1.38,1.6ZM98.56,148.99c1.15-1.15,1.83-2.52,3.67-5.5,10.54-17.42,19.71-32.55,22.69-51.57.92-5.73,1.15-10.77,1.15-11.92,0-1.83-1.61-3.9-2.06-5.5-.46-1.83-.69-1.83-.92-1.83s-.46,0-1.15.69c-.92.92-2.29,2.06-2.75,2.75-2.52,3.9-17.88,24.99-24.53,48.59-.92,3.21-2.75,11.92-2.75,16.27,0,1.38.23,3.21,1.61,5.73,1.83,3.44,2.06,3.67,2.75,3.67s1.38-.46,2.29-1.38Z"/><path class="cls-3" d="M162.97,156.1c.69,0,.92,0,2.98-1.83,3.67-3.44,7.79-8.71,11.92-13.52,4.58-5.5,8.94-10.77,15.36-10.77,2.75,0,3.44.23,5.27,1.38,1.38.92,2.52,2.29,2.52,4.13,0,2.75-2.29,3.67-4.36,6.19-5.73,7.11-11.23,16.05-14.67,19.71-5.27,5.73-10.54,10.32-20.17,10.32-2.29,0-5.04-.46-10.31-4.13-2.29-1.6-4.81-3.67-6.88-7.79-.92-1.83-1.6-5.73-1.6-10.09s.23-7.11,1.83-13.29c1.6-6.19,2.98-9.86,8.25-24.07,9.63-25.9,28.65-62.35,44.47-92.15,1.83-3.44,2.98-8.02,5.04-12.15,2.06-4.36,3.21-6.65,8.71-7.34,2.06-.23,3.21-.69,6.88-.69,2.06,0,5.04.23,6.42,2.98.46.92.92,2.75.92,5.27,0,4.58-.92,6.88-4.36,12.84-18.57,32.32-38.74,61.89-51.57,96.04-2.75,7.34-4.36,11-6.19,16.5-2.06,5.96-2.75,14.21-2.75,16.27,0,5.04,1.6,6.19,2.29,6.19Z"/><path class="cls-3" d="M207.44,156.1c.69,0,.92,0,2.98-1.83,3.67-3.44,7.79-8.71,11.92-13.52,4.58-5.5,8.94-10.77,15.36-10.77,2.75,0,3.44.23,5.27,1.38,1.38.92,2.52,2.29,2.52,4.13,0,2.75-2.29,3.67-4.36,6.19-5.73,7.11-11.23,16.05-14.67,19.71-5.27,5.73-10.54,10.32-20.17,10.32-2.29,0-5.04-.46-10.31-4.13-2.29-1.6-4.81-3.67-6.88-7.79-.92-1.83-1.6-5.73-1.6-10.09s.23-7.11,1.83-13.29c1.6-6.19,2.98-9.86,8.25-24.07,9.63-25.9,28.65-62.35,44.47-92.15,1.83-3.44,2.98-8.02,5.04-12.15,2.06-4.36,3.21-6.65,8.71-7.34,2.06-.23,3.21-.69,6.88-.69,2.06,0,5.04.23,6.42,2.98.46.92.92,2.75.92,5.27,0,4.58-.92,6.88-4.36,12.84-18.57,32.32-38.74,61.89-51.57,96.04-2.75,7.34-4.36,11-6.19,16.5-2.06,5.96-2.75,14.21-2.75,16.27,0,5.04,1.6,6.19,2.29,6.19Z"/><path class="cls-3" d="M301.19,92.38c-6.19,24.53-14.21,45.84-27.05,61.43-4.13,5.04-4.81,5.73-6.42,7.34-4.58,4.58-7.34,6.42-12.84,6.42-2.75,0-4.81-.46-6.19-1.38-6.42-4.13-11.69-10.09-12.84-14.21-1.38-4.81-1.38-9.86-1.38-14.21,0-8.02.46-10.09,1.38-14.67,2.75-13.98,12.15-31.86,16.73-38.74l7.11-11c6.19-9.4,13.52-19.48,23.84-19.48,5.27,0,8.48.92,11.46,4.36,1.37,1.6,2.06,2.98,2.29,3.9.92,4.13,1.15,5.04,2.75,8.48,1.15,2.52,3.21,3.9,4.36,3.9,5.27,0,9.63-.69,15.13-.69,8.48,0,13.07,2.52,13.07,6.19,0,2.75-4.36,3.21-5.73,5.04-.46.69-.92.92-2.06,1.15-3.9.69-9.17,2.98-13.98,3.9-2.29.46-5.73.69-8.25.69-.92,0-1.15.69-1.38,1.6ZM256.72,148.99c1.15-1.15,1.83-2.52,3.67-5.5,10.54-17.42,19.71-32.55,22.69-51.57.92-5.73,1.15-10.77,1.15-11.92,0-1.83-1.6-3.9-2.06-5.5-.46-1.83-.69-1.83-.92-1.83s-.46,0-1.15.69c-.92.92-2.29,2.06-2.75,2.75-2.52,3.9-17.88,24.99-24.53,48.59-.92,3.21-2.75,11.92-2.75,16.27,0,1.38.23,3.21,1.6,5.73,1.83,3.44,2.06,3.67,2.75,3.67s1.38-.46,2.29-1.38Z"/><path class="cls-3" d="M394.94,96.73c0,.92,0,2.52-.69,9.17-2.29,22.92-11.69,45.84-25.67,61.89-1.6,1.83-3.67,3.9-10.09,3.9-6.88,0-12.38-3.21-16.96-6.65-1.83-1.38-4.36-4.58-4.36-9.17,0-2.52.92-6.88.92-7.34,0-.23,0-.46-.46-.46-.23,0-.46.23-2.06,2.52-3.21,4.58-3.9,5.5-5.73,7.56-3.67,4.36-7.34,5.5-11.46,5.5-2.75,0-3.44-.23-4.81-1.15-3.67-2.29-8.71-4.81-9.63-7.11-.46-1.15-.92-4.13-.92-6.19,0-1.38.23-3.21,1.15-6.65,7.34-27.74,20.4-54.55,25.21-81.37.46-2.52,3.21-5.04,9.63-5.04,1.15,0,3.9.23,5.04.23,1.83,0,2.75.23,3.67.69,2.29,1.15,2.75,2.29,2.75,4.81,0,1.38-.46,2.52-1.6,4.58-1.83,3.21-2.06,4.58-2.98,6.88-9.17,22.69-17.42,49.97-20.4,58.45-2.06,5.96-2.29,6.65-2.29,6.88s0,.46.46.46c.23,0,.69,0,4.81-5.96,10.09-14.67,17.65-26.13,23.84-39.2,2.29-4.81,3.9-8.25,4.81-10.77.92-2.29,1.38-3.67,6.88-3.67,2.29,0,3.44.23,4.36.23.69,0,6.88.23,6.88,6.88,0,3.9-1.6,6.88-7.11,16.96-2.75,5.04-3.67,9.86-5.27,13.52-2.98,6.88-4.81,12.38-6.88,21.55-.69,3.21-1.83,11.46-1.83,13.29,0,2.98.69,3.67,1.15,3.67.69,0,2.52-.69,6.19-5.96,11.69-16.96,15.13-43.78,15.36-46.07.23-1.6,1.6-5.73,1.6-8.48,0-7.11-2.29-12.61-2.29-18.57,0-1.38.69-3.9,2.29-5.5.69-.69,4.81-1.38,9.86-1.38,2.52,0,3.44.23,4.13,1.38.69.92,2.06,2.75,4.36,4.58,3.21,2.52,6.42,3.21,11.69,3.21,5.73,0,13.75-2.98,24.53-2.98,1.6,0,3.9.46,4.58,1.15.69.69,1.38,2.52,1.38,3.9,0,1.83-.69,4.13-1.83,5.04-1.83,1.6-4.81,2.98-7.56,3.67-11.69,2.98-13.98,6.19-22.69,6.19-8.25,0-9.4-1.15-11-1.15-.69,0-.92.92-.92,2.06Z"/><path class="cls-3" d="M472.87,170.31c-1.83,1.15-2.29,1.15-4.36,1.15-5.73,0-11-3.21-12.61-4.36-3.21-2.52-4.81-4.81-5.04-7.11-.23-1.83-.23-5.5-.23-8.02,0-5.27,2.52-17.19,5.96-27.96,2.06-6.42,2.29-9.17,4.13-14.44,4.81-13.52,7.79-27.97,15.82-43.09,2.29-4.36,5.5-5.96,9.86-5.96,5.27,0,8.02,2.52,8.25,3.67.23,1.6,1.6,3.44,1.6,5.96,0,1.38-1.6,4.36-4.13,6.42-1.6,1.38-4.13,3.44-6.19,11-5.5,20.17-14.67,42.63-17.88,59.37-.69,3.67-.69,5.04-.69,5.27,0,1.38.46,2.29.92,2.29.23,0,.69-.23,1.83-1.38,6.65-6.65,6.65-8.25,10.77-13.29,12.38-15.36,23.38-32.09,30.49-51.12,1.15-3.21,2.29-4.13,3.9-5.27.92-.69,3.21-1.38,6.19-1.38,3.9,0,3.9,1.6,6.19,2.52s3.21,2.06,3.21,3.44c0,2.06,0,3.67-1.61,7.34-7.34,16.5-13.29,33.47-16.73,51.57-1.15,6.19-2.29,13.75-2.29,17.88,0,5.27,2.29,8.71,2.29,13.29,0,2.06-.69,4.36-1.38,5.04-.92.92-2.52.92-4.58.92-3.67,0-5.73-.92-8.48-3.44-2.75-2.52-3.67-.92-4.35-4.36-.92-4.58-1.15-8.48-1.15-10.09,0-5.27,1.61-13.98,1.61-15.82,0-.23,0-.46-.46-.46-.23,0-.46.23-1.15,1.15-3.44,5.04-12.84,14.9-19.71,19.25Z"/><path class="cls-3" d="M549.65,156.1c0-.69-.23-4.36-.46-6.19-1.38-12.38-2.52-35.53-2.52-53.18,0-4.58,2.98-18.8,8.71-28.88,5.96-10.54,13.29-14.9,19.48-14.9,11.46,0,16.04,4.13,18.8,8.48,2.06,3.21,2.52,8.71,2.52,13.07,0,5.04-.69,11.92-6.65,20.86-1.83,2.75-2.06,2.75-4.58,2.75-3.44,0-5.73-.92-8.02-2.98-1.6-1.6-2.29-3.67-2.29-6.88,0-.92.23-1.38.92-2.75,3.44-6.88,3.67-9.17,3.67-11,0-3.9-1.38-7.34-2.29-7.34-.46,0-.92.46-2.75,3.21-4.58,6.65-7.56,12.61-8.71,19.25-.69,3.67-.69,5.27-.69,7.11,0,3.44,0,13.52.69,25.44,1.83,30.26,1.83,32.55,1.83,35.53,0,5.96-.46,6.65-1.83,8.48-1.6,2.06-3.44,4.13-6.19,6.19-2.75,2.06-4.36,2.06-7.56,2.06-4.13,0-4.81,0-6.65-.92-11-5.5-19.26-18.11-24.53-30.49-.69-1.6-.92-2.98-.92-3.44,0-3.21,2.75-8.71,9.17-8.71,5.5,0,6.88.46,8.48,3.44,3.9,7.11,5.04,15.13,10.31,21.78.92,1.15,1.38,1.15,1.61,1.15.46,0,.46-.69.46-1.15Z"/><g class="cls-1"><image width="1024" height="514" transform="translate(-648.28 -41.9) scale(.75)" xlink:href="หลอดเลือดหัวใจ-1024x514.jpg"/></g></svg>