<?xml version="1.0" encoding="UTF-8"?>
<svg id="Layer_1" data-name="Layer 1" xmlns="http://www.w3.org/2000/svg" version="1.1" viewBox="0 0 856 1228.4">
  <defs>
    <style>
      .cls-1 {
        fill: #34a853;
      }

      .cls-1, .cls-2, .cls-3, .cls-4, .cls-5 {
        stroke-width: 0px;
      }

      .cls-2 {
        fill: #4285f4;
      }

      .cls-3 {
        fill: #ea4335;
      }

      .cls-4 {
        fill: #fbbc04;
      }

      .cls-5 {
        fill: #1a73e8;
      }
    </style>
  </defs>
  <path class="cls-1" d="M235.7,910c37.9,47.4,76.5,107,96.7,143,24.6,46.8,34.8,78.4,53.1,135,10.7,31,20.9,40.4,42.3,40.4s34.1-15.8,42.3-40.4c17.1-53.1,30.3-93.5,51.2-132,80.6-152,212-260,286-408,0,0,48.7-90.4,48.7-217s-48-200-48-200L236,911l-.3-1Z"/>
  <path class="cls-4" d="M41.7,632c46.1,105,134,197,194,278l318-377s-44.9,58.8-126,58.8-164-72-164-163,37.3-106,37.3-106c-234,34.8-221,91.5-260,309l.7.2Z"/>
  <path class="cls-2" d="M557.7,19.7c106,34.1,196,106,250,211l-254,303s37.3-43.6,37.3-106c0-92.9-78.4-163-163-163s-126,58.1-126,58.1c19.5-44.4,221-288,256-303h-.3Z"/>
  <path class="cls-5" d="M99.7,153C162.9,77.8,273.7,0,426.7,0s130,19.6,130,19.6l-255,303c-17.2-9.3-185-140-202-170v.4Z"/>
  <path class="cls-3" d="M41.7,632S0,549.2,0,430,44.2,218,100,154l202,170L42,632h-.3Z"/>
</svg>