<?xml version="1.0" encoding="UTF-8"?>
<svg id="Layer_1" data-name="Layer 1" xmlns="http://www.w3.org/2000/svg" version="1.1" viewBox="0 0 2019.5 370.9">
  <defs>
    <style>
      .cls-1 {
        fill-rule: evenodd;
      }

      .cls-1, .cls-2 {
        fill: #767676;
        stroke-width: 0px;
      }
    </style>
  </defs>
  <path class="cls-1" d="M1023.6,192.6l82.8-34.4c-4.6-11.6-18.2-19.6-34.4-19.6-20.7,0-49.4,18.2-48.4,54M1120.8,225.9l31.6,21c-10.2,15.1-34.7,41.1-77.2,41.1s-90.6-40.7-90.6-92.6,38.3-92.6,86.1-92.6c43.9,1.5,71.2,29.8,83.5,69.4l-124,51.2c9.5,18.6,24.2,28.1,44.9,28.1s35-10.2,45.5-25.6M919.6,282.4h40.7V10.4h-40.7v272ZM853.2,195.7c0-32.6-21.8-56.5-49.5-56.5s-51.6,23.9-51.6,56.5,23.5,55.8,51.6,55.8,49.5-23.5,49.5-55.8ZM889,108.4v166c0,68.4-40.3,96.5-88,96.5s-71.9-30.2-82.1-54.7l35.4-14.7c6.3,15.1,21.8,33,46.7,33,45.5-5.2,49.5-34.6,49.5-67.7h-1.5c-9.1,11.2-26.7,21.1-48.8,21.1-46.3,0-88.8-40.3-88.8-92.3s42.4-93,88.8-93,39.7,9.8,48.8,20.7h1.4v-15.1c0,0,38.6,0,38.6,0v.3ZM445,195.4c0-33.3-23.8-56.1-51.3-56.1s-51.3,22.8-51.3,56.1,23.8,56.1,51.3,56.1,51.3-23.2,51.3-56.1M485,195.4c0,53.3-41,92.6-91.3,92.6s-91.3-39.3-91.3-92.6,41-92.6,91.3-92.6,91.3,38.9,91.3,92.6M650,195.4c0-33.3-23.8-56.1-51.3-56.1s-51.3,22.8-51.3,56.1,23.8,56.1,51.3,56.1,51.3-23.2,51.3-56.1M690,195.4c0,53.3-41,92.6-91.3,92.6s-91.3-39.3-91.3-92.6,41-92.6,91.3-92.6,91.3,38.9,91.3,92.6M146,288C66.8,288,0,223.4,0,144S66.7,0,146,0s75.1,17.2,98.6,39.7l-27.7,27.7c-16.8-15.8-39.6-28.1-70.9-28.1-57.9,0-103,46.7-103,104s45.3,104,103,104,58.9-15.1,72.6-28.8c11.2-11.2,18.6-27.4,21.4-49.5h-94v-39.3h132c1.4,7,2.1,15.4,2.1,24.5,0,29.5-8.1,66-34,91.9-25.2,26.5-57.5,40.6-100,40.6"/>
  <path class="cls-2" d="M1249.7,280.3V38.5h31.2l84,147.3h1.3l84-147.3h31.2v241.8h-31.2l1.3-184h-1.3l-75.5,132.5h-18.1l-75.5-132.5h-1.3c2.3,61.2,1.3,122.8,1.3,184h-31.2ZM1578.9,284.6c-17.7,0-32.1-5.1-43.9-15.2s-17.7-23.6-17.7-40.1,7.2-32.1,21.1-42.2,31.2-15.2,51.5-15.2,33.3,3.4,44.7,10.1c-.3-35.1-24.6-44.7-43.5-44.7-17.8.8-33.3,8.3-39.7,24.1l-28.3-12.2c3.8-9.7,11.4-19,22.8-27.4s26.2-12.7,44.7-12.7,38.8,6.3,52.8,18.6,21.1,30,21.1,52.3v100h-29.5v-22.8c-13.8,17.3-32.5,27.1-56.1,27.4h0ZM1634.6,207.8c-18.2-13.8-56.1-15.6-73.8-1.3-13.9,13.5-15.4,31.6-.8,42.2,35.2,22.6,76-12.6,74.7-40.9ZM1785.7,284.6c-12.7,0-24.1-2.5-33.8-8s-17.3-12.2-22.4-20.3h-1.7l1.3,22.8v73h-30.8V113.7h29.5v22.8h1.3c5.1-8,12.2-14.8,22.4-20.3s21.5-8,33.8-8c21.5,0,39.7,8.4,55.3,25.3s23.2,38,23.2,62.9-7.6,46-23.2,62.9c-15.2,16.9-33.8,25.3-54.9,25.3h0ZM1780.6,255.9c14.3,0,26.6-5.5,37.1-16.5s15.6-25.3,15.6-43.5-5.1-32.5-15.6-43.5-22.8-16.5-37.1-16.5-27,5.5-37.1,16c-10.1,11-15.2,25.3-15.2,43.5s5.1,32.9,15.2,43.5c10.1,11.8,22.4,16.9,37.1,16.9ZM1954.5,284.6c-18.6,0-33.8-4.6-45.6-13.5-12.2-8.9-20.7-20.3-26.6-33.8l27.9-11.4c8.9,20.7,23.6,31.2,44.7,31.2s17.7-2.1,23.6-6.3c6.3-4.2,9.3-9.7,9.3-16.9,0-11-7.6-18.1-22.8-21.9l-33.3-8c-10.6-2.5-20.7-8-30-15.2s-14.3-17.7-14.3-30.4,6.3-26.6,19.4-35.4c13.1-9.3,28.3-13.5,46-13.5s27.9,3.4,39.2,10.1,19.8,16,24.5,28.7l-27,11c-5.9-14.8-18.6-21.9-38-21.9s-16.9,2.1-23.2,5.9-9.3,8.9-9.3,15.6,7.2,16,21.9,19.4l32.9,7.6c15.6,3.8,27,9.7,34.6,18.6s11,18.6,11,29.5-5.9,27.4-18.1,37.1c-11.8,8.4-27.4,13.5-46.8,13.5h0Z"/>
</svg>