<?xml version="1.0" encoding="UTF-8"?><svg id="Layer_1" xmlns="http://www.w3.org/2000/svg" viewBox="0 0 65.37 62.28"><defs><style>.cls-1{fill:#f0f4ee;stroke-width:0px;}</style></defs><path class="cls-1" d="M65.37,26.52C65.37,11.9,50.71,0,32.68,0S0,11.9,0,26.52c0,13.11,11.63,24.09,27.33,26.17,1.06.23,2.51.7,2.88,1.61.33.83.22,2.12.11,2.96,0,0-.38,2.31-.47,2.8-.14.83-.66,3.23,2.83,1.76,3.49-1.47,18.82-11.08,25.68-18.98h0c4.74-5.19,7.01-10.47,7.01-16.32ZM21.15,34.33c0,.35-.28.64-.64.64h-9.16c-.17,0-.33-.07-.44-.18,0,0,0,0,0,0,0,0,0,0,0-.01-.11-.11-.18-.27-.18-.44h0v-14.24c0-.35.29-.64.64-.64h2.29c.35,0,.64.28.64.64v11.31h6.23c.35,0,.64.29.64.64v2.29ZM26.68,34.33c0,.35-.29.63-.64.63h-2.29c-.35,0-.64-.28-.64-.63v-14.24c0-.35.29-.64.64-.64h2.29c.35,0,.64.28.64.64v14.24ZM42.46,34.33c0,.35-.28.63-.64.63h-2.29c-.06,0-.11,0-.16-.02,0,0,0,0,0,0-.01,0-.03,0-.04-.01,0,0-.01,0-.02,0-.01,0-.02,0-.03-.01-.01,0-.02,0-.03-.01,0,0-.01,0-.02,0-.01,0-.03-.02-.04-.02,0,0,0,0,0,0-.06-.04-.12-.09-.16-.16l-6.53-8.82v8.46c0,.35-.29.63-.64.63h-2.29c-.35,0-.64-.28-.64-.63v-14.24c0-.35.29-.64.64-.64h2.29s.01,0,.02,0c.01,0,.02,0,.03,0,.01,0,.02,0,.03,0,0,0,.02,0,.03,0,.01,0,.02,0,.04,0,0,0,.01,0,.02,0,.01,0,.03,0,.04.01,0,0,.01,0,.02,0,.01,0,.02.01.04.02,0,0,.01,0,.02,0,.01,0,.02.01.03.02,0,0,.01,0,.02.01.01,0,.02.01.03.02,0,0,.01,0,.02.01.01,0,.02.02.03.03,0,0,0,0,.01.01.01.01.03.03.04.04,0,0,0,0,0,0,.02.02.03.04.05.06l6.53,8.81v-8.46c0-.35.28-.64.64-.64h2.29c.35,0,.64.28.64.64v14.24ZM55.12,22.39c0,.35-.28.64-.64.64h-6.23v2.41h6.23c.35,0,.64.29.64.64v2.29c0,.35-.28.64-.64.64h-6.23v2.41h6.23c.35,0,.64.29.64.64v2.29c0,.35-.28.64-.64.64h-9.16c-.17,0-.33-.07-.44-.18,0,0,0,0,0,0,0,0,0,0,0,0-.11-.11-.18-.27-.18-.44h0v-14.24h0c0-.17.07-.33.18-.44,0,0,0,0,.01-.01,0,0,0,0,0,0,.12-.11.27-.18.44-.18h9.16c.35,0,.64.29.64.64v2.29Z"/></svg>