<?xml version="1.0" encoding="UTF-8"?><svg id="Layer_4_copy_7" xmlns="http://www.w3.org/2000/svg" viewBox="0 0 241.09 131.2"><defs><style>.cls-1{isolation:isolate;opacity:.29;}.cls-1,.cls-2{fill:#2ea171;stroke-width:0px;}</style></defs><path class="cls-2" d="M190.95,66.33V17.74c0-7.14,5.78-12.92,12.92-12.92h0c7.14,0,12.92,5.78,12.92,12.92v48.59c0,7.14-5.78,12.92-12.92,12.92h0c-7.14,0-12.92-5.78-12.92-12.92Z"/><path class="cls-2" d="M228.17,53.86h-48.59c-7.14,0-12.92-5.78-12.92-12.92h0c0-7.14,5.78-12.92,12.92-12.92h48.59c7.14,0,12.92,5.78,12.92,12.92h0c0,7.14-5.78,12.92-12.92,12.92Z"/><rect class="cls-1" x="141.96" y="-3.86" width="43.55" height="139.03" rx="21.77" ry="21.77" transform="translate(-12.36 76.05) rotate(-25.23)"/><rect class="cls-2" x="-25.22" y="43.69" width="144.44" height="43.55" rx="21.77" ry="21.77" transform="translate(-33.19 73.44) rotate(-60)"/><rect class="cls-2" x="46.44" y="43.7" width="144.44" height="43.55" rx="21.77" ry="21.77" transform="translate(2.63 135.5) rotate(-60)"/><ellipse class="cls-2" cx="184.17" cy="109.09" rx="21.71" ry="22.11"/></svg>