<svg id="Layer_4_copy_6" data-name="Layer 4 copy 6" xmlns="http://www.w3.org/2000/svg" viewBox="0 0 511.66 92.28"><defs><style>.cls-1,.cls-2{fill:#2ea171;}.cls-1{opacity:0.29;}.cls-3{fill:#474748;}</style></defs><title>MediSync-1</title><rect class="cls-1" x="139.9" y="61.89" width="30.63" height="98.05" rx="15.31" transform="translate(302.8 80.22) rotate(154.77)"/><rect class="cls-2" x="57.85" y="60.14" width="30.63" height="101.6" rx="15.31" transform="translate(25.17 -86.61) rotate(30)"/><rect class="cls-2" x="108.24" y="60.14" width="30.63" height="101.6" rx="15.31" transform="translate(31.92 -111.81) rotate(30)"/><ellipse class="cls-2" cx="129.53" cy="76.72" rx="15.27" ry="15.55"/><path class="cls-3" d="M236.93,132.75V80.84H244l21,33.67H261l21-33.67h7.09v51.91h-10V98l1.92.59L266.4,122.12h-6.8L245,98.63l2-.59v34.71Z" transform="translate(-40.1 -64.89)"/><path class="cls-3" d="M315.73,133.49a20.34,20.34,0,0,1-10-2.4,18.89,18.89,0,0,1-7-25.7,18.58,18.58,0,0,1,6.76-6.65,18.8,18.8,0,0,1,9.53-2.47,17.68,17.68,0,0,1,9.12,2.33,16.73,16.73,0,0,1,6.2,6.35,18.36,18.36,0,0,1,2.26,9.12,18.84,18.84,0,0,1-.11,2,20.25,20.25,0,0,1-.41,2.25l-30,.07v-7.23l25.48-.08-3.91,3a14.1,14.1,0,0,0-1.15-5.32,7.28,7.28,0,0,0-2.88-3.28,8.64,8.64,0,0,0-4.61-1.15,9.52,9.52,0,0,0-5,1.29,8.55,8.55,0,0,0-3.29,3.62,13.82,13.82,0,0,0,.07,11.15,8.71,8.71,0,0,0,3.51,3.7,10.66,10.66,0,0,0,5.32,1.29,12.88,12.88,0,0,0,4.95-.92,10.56,10.56,0,0,0,3.84-2.77l5.68,5.68a16.4,16.4,0,0,1-6.31,4.58A20.75,20.75,0,0,1,315.73,133.49Z" transform="translate(-40.1 -64.89)"/><path class="cls-3" d="M353.69,133.49a16.45,16.45,0,0,1-8.86-2.43,17.35,17.35,0,0,1-6.17-6.65,21.14,21.14,0,0,1,0-19,17.48,17.48,0,0,1,6.13-6.65,16.42,16.42,0,0,1,8.9-2.44,15,15,0,0,1,6.91,1.56,12.94,12.94,0,0,1,4.95,4.32,11.79,11.79,0,0,1,2,6.24v12.7a12.19,12.19,0,0,1-2,6.28,13,13,0,0,1-4.95,4.43A14.74,14.74,0,0,1,353.69,133.49Zm1.63-8.93a9.09,9.09,0,0,0,4.76-1.22,8.55,8.55,0,0,0,3.18-3.4,10.76,10.76,0,0,0,1.14-5.06,10.57,10.57,0,0,0-1.14-5,8.49,8.49,0,0,0-3.18-3.4,9,9,0,0,0-4.69-1.22,8.83,8.83,0,0,0-4.76,1.26,8.72,8.72,0,0,0-3.18,3.39,10.39,10.39,0,0,0-1.14,4.95,10.76,10.76,0,0,0,1.14,5.06,8.42,8.42,0,0,0,3.21,3.4A9,9,0,0,0,355.32,124.56Zm18.17,8.19h-9.61v-9.6l1.56-8.71-1.63-8.57V79.36h9.68Z" transform="translate(-40.1 -64.89)"/><path class="cls-3" d="M386.93,91.32A5.25,5.25,0,0,1,383,89.73a5.42,5.42,0,0,1-1.55-4A5.48,5.48,0,0,1,383,81.87a5.56,5.56,0,0,1,7.87,0,5.87,5.87,0,0,1,0,7.86A5.21,5.21,0,0,1,386.93,91.32Zm-4.88,41.43V97.08h9.75v35.67Z" transform="translate(-40.1 -64.89)"/><path class="cls-3" d="M416.47,133.49a22.65,22.65,0,0,1-18.84-8.56l6.65-6.65A16.83,16.83,0,0,0,409.6,123a15.13,15.13,0,0,0,7.38,1.66,11.13,11.13,0,0,0,6.24-1.55,4.86,4.86,0,0,0,2.33-4.28,5.49,5.49,0,0,0-1.33-3.84,10.88,10.88,0,0,0-3.51-2.52,41.81,41.81,0,0,0-4.8-1.88c-1.75-.56-3.49-1.22-5.24-2a21.46,21.46,0,0,1-4.8-2.77,12.24,12.24,0,0,1-3.51-4.28A14.51,14.51,0,0,1,401,94.94a13.83,13.83,0,0,1,2.29-8,14.69,14.69,0,0,1,6.28-5.09,21.82,21.82,0,0,1,9-1.78,22.5,22.5,0,0,1,9.6,2,20.63,20.63,0,0,1,7,5.17l-6.65,6.64a16.23,16.23,0,0,0-4.69-3.69A12.1,12.1,0,0,0,418.46,89,9.71,9.71,0,0,0,413,90.29a4.33,4.33,0,0,0-2,3.84,4.68,4.68,0,0,0,1.33,3.47,11.42,11.42,0,0,0,3.51,2.29q2.18,1,4.8,1.85c1.75.59,3.49,1.25,5.24,2a19.75,19.75,0,0,1,4.8,2.88,13.12,13.12,0,0,1,3.51,4.54,15.69,15.69,0,0,1,1.33,6.83q0,7.24-5.1,11.38T416.47,133.49Z" transform="translate(-40.1 -64.89)"/><path class="cls-3" d="M452.65,133.05l-14.91-36h10.48l9.9,27.48h-3.54l10.26-27.48H475.4l-15.88,36Zm-9.89,14.62,10.86-23,5.9,8.35L453,147.67Z" transform="translate(-40.1 -64.89)"/><path class="cls-3" d="M479.39,132.75V97.08h9.67v35.67Zm24,0V112.3a6.84,6.84,0,0,0-7.16-7.17,7.57,7.57,0,0,0-3.69.89,6.35,6.35,0,0,0-2.55,2.51,7.45,7.45,0,0,0-.93,3.77l-3.76-1.92a14.41,14.41,0,0,1,1.81-7.35,12.81,12.81,0,0,1,5-4.91,14.83,14.83,0,0,1,7.27-1.78,12.93,12.93,0,0,1,7,2,14.24,14.24,0,0,1,4.87,5.1,13.42,13.42,0,0,1,1.78,6.76v22.59Z" transform="translate(-40.1 -64.89)"/><path class="cls-3" d="M537.73,133.49a19.83,19.83,0,0,1-9.82-2.43A18.77,18.77,0,0,1,521,105.43,18.5,18.5,0,0,1,528,98.74a19.68,19.68,0,0,1,9.78-2.47,19.2,19.2,0,0,1,7.76,1.55,17.82,17.82,0,0,1,6.13,4.43l-6.21,6.28a9.19,9.19,0,0,0-3.36-2.36,11.16,11.16,0,0,0-4.32-.82,9.34,9.34,0,0,0-4.76,1.22,9,9,0,0,0-3.32,3.33,9.68,9.68,0,0,0-1.22,5,10,10,0,0,0,1.22,5,8.8,8.8,0,0,0,3.32,3.39,9.24,9.24,0,0,0,4.76,1.22,10.89,10.89,0,0,0,4.4-.85,9.29,9.29,0,0,0,3.36-2.47l6.28,6.28a18.74,18.74,0,0,1-6.28,4.5A19,19,0,0,1,537.73,133.49Z" transform="translate(-40.1 -64.89)"/><g id="Layer_2_copy_6" data-name="Layer 2 copy 6"><rect class="cls-2" x="157.32" y="85.37" width="52.35" height="18.17" rx="9.09" transform="translate(48.94 213.05) rotate(-90)"/><rect class="cls-2" x="157.32" y="84.6" width="52.35" height="18.17" rx="9.09" transform="translate(326.89 122.48) rotate(180)"/></g></svg>