<svg id="Layer_4_copy_7" data-name="Layer 4 copy 7" xmlns="http://www.w3.org/2000/svg" viewBox="0 0 243.49 191.86"><defs><style>.cls-1,.cls-2{fill:#2ea171;}.cls-1{opacity:0.29;}.cls-3{fill:#474748;}</style></defs><title>MediSync-2</title><rect class="cls-1" x="309.19" y="417.09" width="43.55" height="139.03" rx="21.77" transform="translate(670.54 364.75) rotate(154.77)"/><rect class="cls-2" x="192.45" y="414.24" width="43.55" height="144.44" rx="21.77" transform="translate(104.71 -462.93) rotate(30)"/><rect class="cls-2" x="264.1" y="414.24" width="43.55" height="144.44" rx="21.77" transform="translate(114.31 -498.76) rotate(30)"/><ellipse class="cls-2" cx="184.16" cy="109.08" rx="21.71" ry="22.11"/><path class="cls-3" d="M167.73,601.35V561.27h5.47l16.24,26h-3.13l16.19-26H208v40.08h-7.7V574.56l1.49.45-11.29,18.13h-5.24L173.94,575l1.54-.45v26.79Z" transform="translate(-167.22 -421)"/><path class="cls-3" d="M228.55,601.92a15.64,15.64,0,0,1-7.7-1.86,14.57,14.57,0,0,1-5.38-19.83,14.17,14.17,0,0,1,5.21-5.13,14.34,14.34,0,0,1,7.35-1.91,13.67,13.67,0,0,1,7,1.79,12.88,12.88,0,0,1,4.79,4.9,14.19,14.19,0,0,1,1.74,7,12.87,12.87,0,0,1-.09,1.51,13.42,13.42,0,0,1-.31,1.74l-23.14.06v-5.59l19.66,0-3,2.33a10.87,10.87,0,0,0-.88-4.1,5.69,5.69,0,0,0-2.22-2.54,6.84,6.84,0,0,0-3.57-.88,7.29,7.29,0,0,0-3.87,1,6.54,6.54,0,0,0-2.54,2.79,10.64,10.64,0,0,0,.06,8.61,6.72,6.72,0,0,0,2.71,2.85,8.22,8.22,0,0,0,4.1,1,9.74,9.74,0,0,0,3.82-.72,7.87,7.87,0,0,0,3-2.13l4.39,4.38a12.74,12.74,0,0,1-4.87,3.54A16.06,16.06,0,0,1,228.55,601.92Z" transform="translate(-167.22 -421)"/><path class="cls-3" d="M257.84,601.92A12.66,12.66,0,0,1,251,600a13.3,13.3,0,0,1-4.76-5.13,16.35,16.35,0,0,1,0-14.64,13.33,13.33,0,0,1,4.74-5.13,12.56,12.56,0,0,1,6.86-1.89,11.58,11.58,0,0,1,5.33,1.2,10,10,0,0,1,3.82,3.34,9.09,9.09,0,0,1,1.57,4.81v9.81a9.4,9.4,0,0,1-1.54,4.84,10,10,0,0,1-3.82,3.42A11.31,11.31,0,0,1,257.84,601.92Zm1.26-6.9a7,7,0,0,0,3.67-.94,6.54,6.54,0,0,0,2.46-2.62,8.41,8.41,0,0,0,.88-3.91,8.3,8.3,0,0,0-.88-3.85,6.54,6.54,0,0,0-2.46-2.62,7,7,0,0,0-3.62-.94,6.67,6.67,0,0,0-6.12,3.59,8,8,0,0,0-.89,3.82,8.29,8.29,0,0,0,.89,3.91,6.46,6.46,0,0,0,2.48,2.62A6.9,6.9,0,0,0,259.1,595Zm14,6.33h-7.41v-7.41l1.2-6.73-1.26-6.61V560.13h7.47Z" transform="translate(-167.22 -421)"/><path class="cls-3" d="M283.49,569.37a4,4,0,0,1-3-1.23,4.16,4.16,0,0,1-1.19-3,4.22,4.22,0,0,1,1.19-3,4,4,0,0,1,3-1.25,4,4,0,0,1,3.05,1.25,4.29,4.29,0,0,1,1.17,3,4.23,4.23,0,0,1-1.17,3A4,4,0,0,1,283.49,569.37Zm-3.76,32V573.81h7.53v27.54Z" transform="translate(-167.22 -421)"/><path class="cls-3" d="M306.29,601.92a19.06,19.06,0,0,1-8.29-1.66,18.73,18.73,0,0,1-6.24-5l5.13-5.13a12.76,12.76,0,0,0,4.1,3.62,11.66,11.66,0,0,0,5.7,1.29,8.56,8.56,0,0,0,4.82-1.2,3.76,3.76,0,0,0,1.79-3.31,4.28,4.28,0,0,0-1-3,8.53,8.53,0,0,0-2.71-1.94,30.36,30.36,0,0,0-3.7-1.45c-1.35-.44-2.7-.94-4.05-1.51a17.17,17.17,0,0,1-3.71-2.14,9.47,9.47,0,0,1-2.7-3.31,11.13,11.13,0,0,1-1-5.1,10.66,10.66,0,0,1,1.77-6.21A11.24,11.24,0,0,1,301,562a16.82,16.82,0,0,1,7-1.37,17.33,17.33,0,0,1,7.41,1.54,15.73,15.73,0,0,1,5.41,4l-5.13,5.13a12.11,12.11,0,0,0-3.62-2.85,9.32,9.32,0,0,0-4.19-.92,7.57,7.57,0,0,0-4.22,1,3.34,3.34,0,0,0-1.53,3,3.62,3.62,0,0,0,1,2.68,8.72,8.72,0,0,0,2.71,1.77c1.12.49,2.35,1,3.7,1.43s2.7,1,4.05,1.53a15.51,15.51,0,0,1,3.71,2.23,10,10,0,0,1,2.7,3.5,12.09,12.09,0,0,1,1,5.28,10.67,10.67,0,0,1-3.93,8.77Q313.13,601.92,306.29,601.92Z" transform="translate(-167.22 -421)"/><path class="cls-3" d="M334.22,601.57l-11.51-27.76h8.09L338.44,595h-2.73l7.92-21.21h8.15l-12.26,27.76Zm-7.64,11.29L335,595.13l4.56,6.44-5,11.29Z" transform="translate(-167.22 -421)"/><path class="cls-3" d="M354.86,601.35V573.81h7.46v27.54Zm18.52,0V585.56a5.28,5.28,0,0,0-5.53-5.53,5.94,5.94,0,0,0-2.85.68,4.94,4.94,0,0,0-2,1.94,5.76,5.76,0,0,0-.72,2.91l-2.9-1.49a11.19,11.19,0,0,1,1.39-5.67,10,10,0,0,1,3.88-3.79,11.42,11.42,0,0,1,5.61-1.37,10,10,0,0,1,5.42,1.51,11,11,0,0,1,3.76,3.94,10.43,10.43,0,0,1,1.37,5.21v17.45Z" transform="translate(-167.22 -421)"/><path class="cls-3" d="M399.89,601.92a15.17,15.17,0,0,1-7.58-1.89A14.49,14.49,0,0,1,387,580.26a14.2,14.2,0,0,1,5.33-5.16,15.06,15.06,0,0,1,7.56-1.91,14.88,14.88,0,0,1,6,1.19,13.61,13.61,0,0,1,4.73,3.42l-4.79,4.85a7,7,0,0,0-2.59-1.82,8.59,8.59,0,0,0-3.33-.63,7.17,7.17,0,0,0-3.68.94,7,7,0,0,0-2.57,2.56,7.65,7.65,0,0,0-.94,3.85,7.81,7.81,0,0,0,.94,3.85,6.88,6.88,0,0,0,2.57,2.62,7.17,7.17,0,0,0,3.68.94,8.57,8.57,0,0,0,3.39-.65,7.28,7.28,0,0,0,2.59-1.91l4.85,4.84a14.47,14.47,0,0,1-4.85,3.48A14.72,14.72,0,0,1,399.89,601.92Z" transform="translate(-167.22 -421)"/><g id="Layer_2_copy_7" data-name="Layer 2 copy 7"><rect class="cls-2" x="333.88" y="450.1" width="74.43" height="25.84" rx="12.92" transform="translate(-259.15 413.12) rotate(-90)"/><rect class="cls-2" x="333.88" y="449.01" width="74.43" height="25.84" rx="12.92" transform="translate(574.96 502.87) rotate(-180)"/></g></svg>